<svg width="18" height="18" viewBox="0 0 18 18" fill="none" xmlns="http://www.w3.org/2000/svg">
<path d="M4.67969 16.6992H13.5466C14.9024 16.6992 15.686 15.9159 15.686 14.3637V6.56681C15.686 5.01495 14.895 4.23131 13.3203 4.23131H12.1227C12.0777 2.64924 10.7065 1.30084 9.00387 1.30084C7.29387 1.30084 5.92266 2.64924 5.87734 4.23131H4.68001C3.11305 4.23131 2.3143 5.00723 2.3143 6.56681V14.364C2.3143 15.9233 3.11305 16.6992 4.68001 16.6992M9.00387 2.44609C10.0659 2.44609 10.872 3.24484 10.9099 4.23163H7.0978C7.12802 3.24484 7.93416 2.44609 9.00387 2.44609ZM4.70219 15.4864C3.94876 15.4864 3.52705 15.0872 3.52705 14.3039V6.62691C3.52705 5.84359 3.94876 5.44406 4.70219 5.44406H13.3056C14.0436 5.44406 14.473 5.84359 14.473 6.62691V14.3036C14.473 15.0872 14.0436 15.4864 13.5238 15.4864H4.70219Z" fill="black"/>
</svg>
