<svg width="22" height="22" viewBox="0 0 22 22" fill="none" xmlns="http://www.w3.org/2000/svg">
<path d="M4.25363 6.84758C4.4377 5.2399 5.22778 3.75441 6.47262 2.67549C7.71747 1.59656 9.32962 1 11.0005 1C12.6713 1 14.2835 1.59656 15.5283 2.67549C16.7731 3.75441 17.5632 5.2399 17.7473 6.84758L18.0535 9.51336L18.0608 9.58042C18.2177 10.9027 18.6625 12.1778 19.3659 13.3215L19.4024 13.3803L20.1036 14.5132C20.7415 15.5414 21.0599 16.0555 20.9907 16.4778C20.9449 16.7581 20.796 17.013 20.5714 17.1954C20.2324 17.4707 19.6126 17.4707 18.3743 17.4707H3.62659C2.38708 17.4707 1.76732 17.4707 1.4295 17.1966C1.2042 17.0141 1.05483 16.7587 1.00903 16.4778C0.940983 16.0555 1.25937 15.5414 1.89614 14.5132L2.59974 13.3791L2.6362 13.3203C3.33902 12.1769 3.78343 10.9023 3.94011 9.58042L3.9474 9.51336L4.25363 6.84758Z" stroke="white"/>
<path d="M7.47876 17.9484C7.68656 18.8236 8.14469 19.5977 8.78146 20.1483C9.41823 20.7012 10.1984 21 11.0004 21C11.8025 21 12.5826 20.7012 13.2194 20.1495C13.8562 19.5965 14.3131 18.8236 14.5221 17.9484" stroke="white" stroke-linecap="round"/>
</svg>
