<svg width="12" height="12" viewBox="0 0 12 12" fill="none" xmlns="http://www.w3.org/2000/svg">
<rect width="12" height="12" rx="2" fill="white"/>
<path d="M3.88068 10V2.72727H6.33807C6.90862 2.72727 7.375 2.83026 7.73722 3.03622C8.1018 3.23982 8.37169 3.51562 8.54688 3.86364C8.72206 4.21165 8.80966 4.59991 8.80966 5.02841C8.80966 5.45691 8.72206 5.84635 8.54688 6.19673C8.37405 6.54711 8.10653 6.82647 7.74432 7.0348C7.3821 7.24077 6.91809 7.34375 6.35227 7.34375H4.59091V6.5625H6.32386C6.71449 6.5625 7.02817 6.49503 7.26491 6.36009C7.50166 6.22514 7.6733 6.04285 7.77983 5.81321C7.88873 5.5812 7.94318 5.3196 7.94318 5.02841C7.94318 4.73722 7.88873 4.4768 7.77983 4.24716C7.6733 4.01752 7.50047 3.83759 7.26136 3.70739C7.02225 3.57481 6.70502 3.50852 6.30966 3.50852H4.76136V10H3.88068Z" fill="#38B0F4"/>
</svg>
