<svg width="14" height="14" viewBox="0 0 14 14" fill="none" xmlns="http://www.w3.org/2000/svg">
<path d="M4.95838 9.90982C3.57524 9.90982 2.40291 9.42961 1.4414 8.46918C0.480467 7.50933 0 6.3379 0 4.95491C0 3.57192 0.480467 2.40021 1.4414 1.43978C2.40233 0.47935 3.57466 -0.000575969 4.95838 5.18735e-07C6.34211 0.000577006 7.51414 0.480791 8.4745 1.44064C9.43486 2.40049 9.91533 3.57192 9.9159 4.95491C9.9159 5.55561 9.80948 6.137 9.59665 6.69907C9.38381 7.26115 9.10407 7.74194 8.75742 8.14145L13.8698 13.2494C13.9506 13.3301 13.9938 13.4296 13.9996 13.5477C14.0048 13.6648 13.9615 13.7694 13.8698 13.8616C13.7775 13.9539 13.6754 14 13.5635 14C13.4516 14 13.3495 13.9539 13.2573 13.8616L8.14573 8.75281C7.71314 9.12119 7.21566 9.40626 6.65328 9.60803C6.09091 9.8098 5.52566 9.91069 4.95752 9.91069M4.95752 9.04595C6.10533 9.04595 7.07463 8.65106 7.86541 7.86127C8.65561 7.07148 9.05072 6.1027 9.05072 4.95491C9.05072 3.80712 8.6559 2.83863 7.86627 2.04941C7.07665 1.2602 6.10764 0.865308 4.95925 0.864732C3.81086 0.864732 2.84156 1.25963 2.05136 2.04941C1.26115 2.8392 0.865763 3.8077 0.865187 4.95491C0.86461 6.10212 1.25971 7.07062 2.05049 7.86041C2.84127 8.6502 3.81028 9.04509 4.95752 9.04509" fill="#8A8A8A"/>
</svg>
