<svg width="20" height="20" viewBox="0 0 20 20" fill="none" xmlns="http://www.w3.org/2000/svg">
<path fill-rule="evenodd" clip-rule="evenodd" d="M11.9875 12.8717C10.8643 13.7691 9.4401 14.2024 8.00741 14.0825C6.57472 13.9627 5.24229 13.2988 4.28379 12.2273C3.32529 11.1557 2.81348 9.7578 2.85347 8.32066C2.89345 6.88352 3.48221 5.51624 4.49881 4.49964C5.51542 3.48303 6.8827 2.89428 8.31983 2.85429C9.75697 2.8143 11.1549 3.32612 12.2264 4.28462C13.298 5.24312 13.9619 6.57554 14.0817 8.00823C14.2016 9.44092 13.7683 10.8651 12.8708 11.9883L17.1675 16.2842C17.2289 16.3414 17.2782 16.4104 17.3123 16.487C17.3465 16.5637 17.3648 16.6465 17.3663 16.7304C17.3678 16.8143 17.3524 16.8977 17.3209 16.9755C17.2895 17.0533 17.2427 17.124 17.1834 17.1834C17.124 17.2427 17.0533 17.2895 16.9755 17.3209C16.8977 17.3524 16.8143 17.3678 16.7304 17.3663C16.6465 17.3648 16.5637 17.3465 16.4871 17.3123C16.4104 17.2781 16.3414 17.2289 16.2842 17.1675L11.9875 12.8717ZM5.3825 11.57C4.77087 10.9583 4.3543 10.179 4.18543 9.33064C4.01656 8.48225 4.10298 7.60286 4.43376 6.80358C4.76454 6.0043 5.32484 5.32101 6.04385 4.84008C6.76285 4.35914 7.60829 4.10214 8.47331 4.10156C9.33833 4.10098 10.1841 4.35684 10.9038 4.83681C11.6234 5.31677 12.1846 5.9993 12.5165 6.79814C12.8483 7.59697 12.936 8.47625 12.7682 9.32486C12.6005 10.1735 12.185 10.9533 11.5742 11.5658L11.57 11.57L11.5658 11.5733C10.7451 12.3922 9.63286 12.8518 8.47348 12.8511C7.3141 12.8505 6.20237 12.3897 5.3825 11.57Z" fill="black"/>
</svg>
